<svg width="93" height="93" viewBox="0 0 93 93" fill="none" xmlns="http://www.w3.org/2000/svg">
<path d="M93 7.5C93 11.6421 89.6421 15 85.5 15C81.3579 15 78 11.6421 78 7.5C78 3.35786 81.3579 0 85.5 0C89.6421 0 93 3.35786 93 7.5Z" fill="#F7F7F7"/>
<path d="M93 33.5C93 37.6421 89.6421 41 85.5 41C81.3579 41 78 37.6421 78 33.5C78 29.3579 81.3579 26 85.5 26C89.6421 26 93 29.3579 93 33.5Z" fill="#F7F7F7"/>
<path d="M41 33.5C41 37.6421 37.6421 41 33.5 41C29.3579 41 26 37.6421 26 33.5C26 29.3579 29.3579 26 33.5 26C37.6421 26 41 29.3579 41 33.5Z" fill="#F7F7F7"/>
<path d="M93 59.5C93 63.6421 89.6421 67 85.5 67C81.3579 67 78 63.6421 78 59.5C78 55.3579 81.3579 52 85.5 52C89.6421 52 93 55.3579 93 59.5Z" fill="#F7F7F7"/>
<path d="M41 59.5C41 63.6421 37.6421 67 33.5 67C29.3579 67 26 63.6421 26 59.5C26 55.3579 29.3579 52 33.5 52C37.6421 52 41 55.3579 41 59.5Z" fill="#F7F7F7"/>
<path d="M93 85.5C93 89.6421 89.6421 93 85.5 93C81.3579 93 78 89.6421 78 85.5C78 81.3579 81.3579 78 85.5 78C89.6421 78 93 81.3579 93 85.5Z" fill="#F7F7F7"/>
<path d="M67 74.5C67 78.6421 63.6421 82 59.5 82C55.3579 82 52 78.6421 52 74.5C52 70.3579 55.3579 67 59.5 67C63.6421 67 67 70.3579 67 74.5Z" fill="#F7F7F7"/>
<path d="M67 48.5C67 52.6421 63.6421 56 59.5 56C55.3579 56 52 52.6421 52 48.5C52 44.3579 55.3579 41 59.5 41C63.6421 41 67 44.3579 67 48.5Z" fill="#F7F7F7"/>
<path d="M15 48.5C15 52.6421 11.6421 56 7.5 56C3.35786 56 0 52.6421 0 48.5C0 44.3579 3.35786 41 7.5 41C11.6421 41 15 44.3579 15 48.5Z" fill="#F7F7F7"/>
<path d="M67 22.5C67 26.6421 63.6421 30 59.5 30C55.3579 30 52 26.6421 52 22.5C52 18.3579 55.3579 15 59.5 15C63.6421 15 67 18.3579 67 22.5Z" fill="#F7F7F7"/>
</svg>
