<svg width="93" height="93" viewBox="0 0 93 93" fill="none" xmlns="http://www.w3.org/2000/svg">
<path d="M0 7.5C0 11.6421 3.35786 15 7.5 15C11.6421 15 15 11.6421 15 7.5C15 3.35786 11.6421 0 7.5 0C3.35786 0 0 3.35786 0 7.5Z" fill="#F7F7F7"/>
<path d="M0 33.5C0 37.6421 3.35786 41 7.5 41C11.6421 41 15 37.6421 15 33.5C15 29.3579 11.6421 26 7.5 26C3.35786 26 0 29.3579 0 33.5Z" fill="#F7F7F7"/>
<path d="M52 33.5C52 37.6421 55.3579 41 59.5 41C63.6421 41 67 37.6421 67 33.5C67 29.3579 63.6421 26 59.5 26C55.3579 26 52 29.3579 52 33.5Z" fill="#F7F7F7"/>
<path d="M0 59.5C0 63.6421 3.35786 67 7.5 67C11.6421 67 15 63.6421 15 59.5C15 55.3579 11.6421 52 7.5 52C3.35786 52 0 55.3579 0 59.5Z" fill="#F7F7F7"/>
<path d="M52 59.5C52 63.6421 55.3579 67 59.5 67C63.6421 67 67 63.6421 67 59.5C67 55.3579 63.6421 52 59.5 52C55.3579 52 52 55.3579 52 59.5Z" fill="#F7F7F7"/>
<path d="M0 85.5C0 89.6421 3.35786 93 7.5 93C11.6421 93 15 89.6421 15 85.5C15 81.3579 11.6421 78 7.5 78C3.35786 78 0 81.3579 0 85.5Z" fill="#F7F7F7"/>
<path d="M26 74.5C26 78.6421 29.3579 82 33.5 82C37.6421 82 41 78.6421 41 74.5C41 70.3579 37.6421 67 33.5 67C29.3579 67 26 70.3579 26 74.5Z" fill="#F7F7F7"/>
<path d="M26 48.5C26 52.6421 29.3579 56 33.5 56C37.6421 56 41 52.6421 41 48.5C41 44.3579 37.6421 41 33.5 41C29.3579 41 26 44.3579 26 48.5Z" fill="#F7F7F7"/>
<path d="M78 48.5C78 52.6421 81.3579 56 85.5 56C89.6421 56 93 52.6421 93 48.5C93 44.3579 89.6421 41 85.5 41C81.3579 41 78 44.3579 78 48.5Z" fill="#F7F7F7"/>
<path d="M26 22.5C26 26.6421 29.3579 30 33.5 30C37.6421 30 41 26.6421 41 22.5C41 18.3579 37.6421 15 33.5 15C29.3579 15 26 18.3579 26 22.5Z" fill="#F7F7F7"/>
</svg>
